<svg xmlns="http://www.w3.org/2000/svg" id="Layer_1" viewBox="0 0 400.2 132.2">
  <style>
    .st0{display:none;fill:none;} .st1{fill:#6E6F72;} .st2{fill:#4CBCC5;} .st3{font-family:&apos;CorporateRoundedRegularSWFTE&apos;;} .st4{font-size:70.8438px;} .st5{fill:#F39424;} .st6{fill:#065981;}
  </style>
  <path d="M-26.3-14.9h460.5v165H-26.3z" class="st0"/>
  <path d="M140.4 87.3V67.2c0-2.2 1-3.3 3.1-3.3 1 0 1.8.3 2.3.8.5.7.8 1.5.8 2.5v19.9c0 6.5 2.9 9.8 8.8 9.8 2.8 0 5-.8 6.5-2.5 1.5-1.6 2.2-4.1 2.2-7.3V67.2c0-2.2 1-3.3 3.1-3.3 1 0 1.8.3 2.3.8.5.7.8 1.5.8 2.5v20.1c0 5.1-1.4 8.9-4.3 11.3-2.9 2.4-6.4 3.6-10.7 3.6s-7.9-1.2-10.8-3.6c-2.7-2.4-4.1-6.1-4.1-11.3zM177 98.9V67.2c0-2.2 1-3.3 3.1-3.3 1 0 1.8.3 2.3.8.5.7.8 1.5.8 2.4v1.6c1.4-1.7 3-3 4.8-3.7 1.8-.8 3.7-1.2 5.8-1.2 3.5 0 6.6 1.2 9.2 3.5 2.6 2.3 4 5.9 4 10.8v20.8c0 2.2-1 3.3-3.1 3.3-1 0-1.8-.3-2.3-.9-.6-.6-.9-1.4-.9-2.4V78.5c0-3.1-.9-5.4-2.6-6.9-1.7-1.6-3.8-2.3-6.1-2.3s-4.4.8-6.1 2.3c-1.8 1.6-2.7 3.9-2.7 6.9V99c0 2.2-1 3.3-3.1 3.3-1 0-1.8-.3-2.3-.9-.5-.6-.8-1.4-.8-2.5zm36.6 0V67.2c0-2.2 1-3.3 3.1-3.3 1 0 1.8.3 2.3.8.5.7.8 1.5.8 2.5v3.2c.9-1.6 2.1-3.1 3.8-4.5 1.7-1.4 3.3-2.1 5-2.1 1 0 1.9.3 2.5.9.6.6 1 1.4 1 2.3 0 1.8-1.2 2.9-3.6 3.3s-4.4 1.5-6.1 3.2c-1.7 1.7-2.5 4.2-2.5 7.5v17.9c0 2.2-1 3.3-3.1 3.3-1 0-1.8-.3-2.3-.9-.6-.5-.9-1.3-.9-2.4zm35-35.1c5 0 9 1.9 12 5.6 3 3.8 4.5 8.3 4.5 13.6 0 5.3-1.5 9.8-4.4 13.6-3 3.8-7 5.6-12.1 5.6s-9.2-1.9-12.1-5.6c-3-3.7-4.5-8.3-4.5-13.6 0-5.3 1.5-9.8 4.4-13.6 2.9-3.7 7-5.6 12.2-5.6zm0 33.1c3.5 0 6.1-1.4 7.8-4.2 1.7-2.8 2.6-6 2.6-9.7s-.8-6.9-2.5-9.7c-1.7-2.7-4.3-4.1-7.8-4.1s-6.2 1.4-7.9 4.2c-1.7 2.8-2.6 6-2.6 9.7s.8 6.9 2.5 9.7c1.7 2.7 4.3 4.1 7.9 4.1zm27.9-46.4v48.4c0 2.2-1 3.3-3.1 3.3-1 0-1.8-.3-2.3-.9-.6-.6-.9-1.4-.9-2.4V50.5c0-2.2 1-3.3 3.1-3.3 1 0 1.8.3 2.3.8.6.7.9 1.5.9 2.5zm12.8 0v48.4c0 2.2-1 3.3-3.1 3.3-1 0-1.8-.3-2.3-.9-.6-.6-.9-1.4-.9-2.4V50.5c0-2.2 1-3.3 3.1-3.3 1 0 1.8.3 2.3.8.6.7.9 1.5.9 2.5z" class="st1"/>
  <text transform="translate(291.402 101.89)" class="st2 st3 st4">
    .
  </text>
  <path d="M334 98.9v-21c0-2.7-.7-4.8-2.1-6.3-1.4-1.6-3.4-2.3-6-2.3-2.5 0-4.5.8-6 2.3-1.4 1.6-2.1 3.7-2.1 6.3v21c0 2.2-1 3.3-3.1 3.3-1 0-1.8-.3-2.3-.9-.6-.6-.9-1.4-.9-2.4V67.2c0-2.2 1-3.3 3.1-3.3 1 0 1.8.3 2.3.8.5.7.8 1.5.8 2.4v1.2c1-1.3 2.2-2.3 3.6-3.2 1.4-.9 3.4-1.3 6-1.3 2 0 3.9.5 5.7 1.5 1.8 1 3.3 2.6 4.7 4.9 1.5-2.2 3.2-3.8 4.9-4.8 1.8-1 4-1.6 6.6-1.6 3.5 0 6.6 1.2 9.2 3.5 2.6 2.3 4 5.9 4 10.8v20.8c0 2.2-1.1 3.3-3.2 3.3-1 0-1.8-.3-2.2-.9-.6-.6-.8-1.4-.8-2.4v-21c0-2.7-.7-4.8-2.1-6.3-1.4-1.6-3.4-2.3-6-2.3-2.5 0-4.5.8-5.9 2.3-1.4 1.6-2.1 3.7-2.1 6.3v21c0 2.2-1 3.3-3.1 3.3-1 0-1.8-.3-2.3-.9-.4-.5-.7-1.3-.7-2.4zm62.8-13.4h-23.5c0 3.2 1 5.9 3 8.1s4.7 3.3 8.2 3.3c2.7 0 5.1-.5 7-1.5l5.7-3.5c.6 0 1.1.2 1.6.7.4.5.7 1.2.7 2 0 1.5-1.7 3.2-5 5s-6.7 2.7-10.1 2.7c-5.7 0-10-1.8-13-5.5-2.9-3.7-4.4-8.2-4.4-13.7 0-5.3 1.5-9.8 4.6-13.6 3.1-3.7 7.2-5.6 12.4-5.6 4.9 0 8.8 1.8 11.8 5.5s4.4 7.9 4.4 12.7c0 1.2-.2 2-.7 2.5-.4.6-1.4.9-2.7.9zm-23.5-4.7h20.8c0-3-.9-5.6-2.6-8s-4.2-3.6-7.4-3.6c-3.6 0-6.3 1.1-8.1 3.4-1.8 2.3-2.7 5-2.7 8.2z" class="st1"/>
  <path d="M135.1 25.9c0-9.8-7.7-17.7-17.3-18.1h-8.9L73.8 44.1h44c9.6-.3 17.3-8.4 17.3-18.2" class="st5"/>
  <path d="M73.8 44.2v25c0 13-4.1 23.6-17.2 23.6-13 0-17.2-10.6-17.2-23.6V18.7c0-.3 0-.5-.1-.7v-.2C38.4 7.8 30.1 0 19.8 0c-.7 0-1.3 0-2 .1C8.1 1 .5 8.8 0 18.6v50.6c0 34.7 21.8 63 56.5 63 34.3 0 55.8-27.5 56.5-61.7V44.2H73.8z" class="st2"/>
  <path d="M113.2 63.5V44.2H73.8z" class="st6"/>
</svg>
