<?xml version="1.0" encoding="utf-8"?>
<!-- Generator: Adobe Illustrator 17.1.0, SVG Export Plug-In . SVG Version: 6.00 Build 0)  -->
<!DOCTYPE svg PUBLIC "-//W3C//DTD SVG 1.1//EN" "http://www.w3.org/Graphics/SVG/1.1/DTD/svg11.dtd">
<svg version="1.1" id="Layer_1" xmlns="http://www.w3.org/2000/svg" xmlns:xlink="http://www.w3.org/1999/xlink" x="0px" y="0px"
	 viewBox="0 0 353.8 402" enable-background="new 0 0 353.8 402" xml:space="preserve">
<g>
	<path fill="#E52C48" d="M264.8,44.5c0,0,0.1,0,0.1,0c0.9,0.3,1.9-0.1,2.4-0.8c0.3-0.3,6.4-8.4,22.1-5.9c3.6,0.6,7.5-0.3,11.2-2.3
		c4.4-2.5,7.6-6.5,8.9-11.4c1.4-4.9,0.7-10-1.7-14.4c-2.2-4-5.9-7-10.2-8.6c-5.2-1.8-10.8-1.3-15.5,1.3c-0.8,0.4-20.4,10-18.9,40.1
		C263.3,43.4,263.9,44.2,264.8,44.5z"/>
	<path fill="#E52C48" d="M290.3,46c-0.4-0.1-9.4-2.2-18.1,5.2c-0.6,0.5-0.9,1.3-0.8,2c0.1,0.8,0.6,1.4,1.3,1.7c0.7,0.3,1.4,0.6,2,1
		c4.3,2.6,6.4,6.8,6.4,6.8c0.1,0.2,0.2,0.4,0.4,0.6c0.5,0.5,1.1,1,1.7,1.4c1.1,0.7,2.4,1.1,3.8,1.3c2.7,0.4,5.4-0.3,7.5-1.9
		c2.2-1.6,3.6-4,4-6.7c0.6-4.1-1.3-8.1-4.8-10.2C292.8,46.6,291.5,46.2,290.3,46z"/>
	<path fill="#E52C48" d="M353.8,336.1c0-11.2-26.3-21.1-67.4-27.6V147.4c0-0.1,0-0.1,0-0.2c0-0.2,0-0.3,0-0.5c0-0.2-0.1-0.4-0.1-0.5
		c0-0.2-0.1-0.3-0.1-0.4c-0.1-0.2-0.1-0.4-0.2-0.6c0-0.1,0-0.1-0.1-0.2c0-0.1-0.1-0.1-0.1-0.2c-0.1-0.2-0.2-0.3-0.3-0.5
		c-0.1-0.1-0.2-0.3-0.3-0.4c-0.1-0.1-0.2-0.3-0.4-0.4c-0.1-0.1-0.2-0.2-0.4-0.3c-0.1-0.1-0.3-0.2-0.4-0.3c-0.1-0.1-0.3-0.2-0.4-0.3
		c-0.2-0.1-0.3-0.2-0.5-0.2c-0.1-0.1-0.3-0.1-0.4-0.2c-0.2,0-0.3-0.1-0.5-0.1c-0.2,0-0.4-0.1-0.5-0.1c0,0,0,0,0,0l-40.2-4.3v-33.1
		L265.7,74c2.5-2.5,3.4-6.2,2.5-10.3c-0.7-3.3-2.5-6.7-5.1-9.7c-3.9-4.4-8.9-7-13.3-7c-2.5,0-4.8,0.8-6.6,2.4
		c-0.2,0.2-0.5,0.5-0.7,0.7L209,92.9c-0.8,1-1.2,2.2-1.2,3.4V134l-73.5-9.5c-1.1-0.1-2.2,0-3.2,0.5l-48.9,21.7c-1.9,0.9-3,2.8-3,4.9
		v155.1C31.5,313.1,0,323.8,0,336.1c0,12.2,31.3,22.9,78.7,29.2l-0.1,0c14.4,2.7,1.3,7.6,1.3,7.6l0.1,0c-5.4,2.5-8.5,5.3-8.5,8.2
		c0,11.5,47.1,20.9,105.3,20.9c58.2,0,105.3-9.4,105.3-20.9c0-2.9-3-5.7-8.5-8.2h0c0,0,0,0-0.1,0c-0.5-0.2-1-0.5-1.6-0.7
		c-3-1.5-8.1-4.8,3-6.9l0,0C322.5,359,353.8,348.2,353.8,336.1z M250.2,58.1c1,0.2,2.8,1.1,4.7,3.2c2.1,2.4,2.7,4.5,2.7,5.3
		c-0.1,0.1-0.1,0.2-0.2,0.3l-2,2.5l-9.4-5.9L250.2,58.1z M236.4,75.7l9.3,5.9l-8.4,10.6l-9.2-5.8L236.4,75.7z M218.8,98.2l0.1-0.2
		l11.5,7.3v4l-11.6,6.5V98.2z M218.8,131.6l11.6-6.5v11.7l-11.6,6.5V131.6z M258.8,152.4L258.8,152.4l-28.5,14.4
		c-1.2,0.5-3.6,1-7.7,0.6l-99.3-13.2c-3-0.4-5.8,1.7-6.1,4.7c-0.4,3,1.7,5.8,4.7,6.2l96.3,12.8l0,0c0,0,5.1,0,5.1,6.9l0,0v157.4
		l0-0.1c0,4.5-3.3,4.7-4.7,4.6L94,330l0,0c-3.1-0.4-3.7-2.9-3.8-3.8V158.3c0.1-2.8,1.9-4.1,2.5-4.5l39.8-17.1
		c0.8-0.3,2.7-0.8,5.7-0.6l69.6,9v5.8c0,0.7,0.2,1.4,0.4,2.1c1.3,5.7,7.9,9.8,16.4,9.8c9.5,0,16.7-5.1,16.7-11.9v-2.2l16.2,1.7h-0.1
		C257.4,150.4,262.4,150.9,258.8,152.4z"/>
	<g id="KAKbRw_1_">
		<g>
			<path fill-rule="evenodd" clip-rule="evenodd" fill="#E52C48" d="M161.3,197.2c12-0.5,29.6,5.1,30.9,15.8
				c1,8.1-7.4,22.4-17.9,21.5c-4.4-0.4-6.4-3.2-7-6.5c-0.7-4.2,1.5-8.4-1.7-10.8c-6.2-4.5-16,3.3-18.7,5.7c-3.6,3.3-9.2,9.5-7,16.5
				c1.5,4.8,6.8,5.9,12.2,7.9c4.9,1.8,13.1,4,16.4,5.8c11,5.9,21.7,14.7,19.7,30.4c-1.9,15.6-23.6,33.9-45.3,27.6
				c-9.4-2.7-19.9-11.7-21.3-22.9c-0.9-7,1.2-14.8,8.7-15.4c15.9-1.4,9.9,17.9,22.2,18.6c9.8,0.6,19.5-12.5,15.2-22.6
				c-2.7-6.4-12-8.7-21.3-11.1c-14.3-3.8-30-9.5-28.3-26.5c1.5-15.1,20.2-30.1,37.9-33.7C157.7,197.2,159.2,197.3,161.3,197.2z"/>
		</g>
	</g>
</g>
</svg>
